<svg viewBox="0 0 400 160" xmlns="http://www.w3.org/2000/svg">
  <title>PadesSharp Logo</title>

  <!-- Shield -->
  <path d="M22 20 L78 20 L78 88 Q78 118 50 130 Q22 118 22 88 Z" fill="#0A2342"/>
  <path d="M28 26 L72 26 L72 88 Q72 112 50 123 Q28 112 28 88 Z" fill="#0d2d52"/>

  <!-- Document inside shield -->
  <rect x="36" y="38" width="18" height="24" rx="1.5" fill="white" opacity="0.92"/>
  <line x1="39" y1="44" x2="51" y2="44" stroke="#0A2342" stroke-width="1.2" stroke-linecap="round"/>
  <line x1="39" y1="48" x2="51" y2="48" stroke="#0A2342" stroke-width="1.2" stroke-linecap="round"/>
  <line x1="39" y1="52" x2="47" y2="52" stroke="#0A2342" stroke-width="1.2" stroke-linecap="round"/>
  <!-- Signature -->
  <path d="M38 58 Q41 54 44 58 Q47 62 50 56" stroke="#0078D4" stroke-width="1.8" fill="none" stroke-linecap="round"/>

  <!-- Verified badge -->
  <circle cx="58" cy="72" r="9" fill="#0078D4"/>
  <polyline points="53.5,72 56.5,75.5 62.5,68" stroke="white" stroke-width="2" fill="none" stroke-linecap="round" stroke-linejoin="round"/>

  <!-- Wordmark -->
  <text x="92" y="78" font-family="Segoe UI, Arial, sans-serif" font-size="38" font-weight="700" fill="#0A2342" letter-spacing="-0.5">Pades</text>
  <text x="244" y="78" font-family="Segoe UI, Arial, sans-serif" font-size="38" font-weight="700" fill="#0078D4" letter-spacing="-0.5">Sharp</text>

  <!-- Tagline -->
  <text x="93" y="103" font-family="Segoe UI, Arial, sans-serif" font-size="13.5" fill="#5a7a9a" letter-spacing="2.5">PDF DIGITAL SIGNING · .NET</text>
  <line x1="92" y1="112" x2="370" y2="112" stroke="#0078D4" stroke-width="1.5" opacity="0.35"/>
</svg>
